<?xml version="1.0" encoding="UTF-8" standalone="no" ?>
<!DOCTYPE svg PUBLIC "-//W3C//DTD SVG 1.1//EN" "http://www.w3.org/Graphics/SVG/1.1/DTD/svg11.dtd">
<svg xmlns="http://www.w3.org/2000/svg" xmlns:xlink="http://www.w3.org/1999/xlink" version="1.1" width="1024" height="1024" viewBox="0 0 1024 1024" xml:space="preserve">
<desc>Created with Fabric.js 3.1.0</desc>
<defs>
</defs>
<g transform="matrix(1 0 0 1 512 512)" id="background-logo"  >
<rect style="stroke: none; stroke-width: 1; stroke-dasharray: none; stroke-linecap: butt; stroke-dashoffset: 0; stroke-linejoin: miter; stroke-miterlimit: 4; fill: rgb(255,255,255); fill-rule: nonzero; opacity: 1;"  paint-order="stroke"  x="-512" y="-512" rx="0" ry="0" width="1024" height="1024" />
</g>
<g transform="matrix(1.5745007680491552 0 0 1.5745007680491552 646.840703573771 463.82529727136495)"  >
<filter id="SVGID_22475" y="-20%" height="140%" x="-20%" width="140%" >
	<feGaussianBlur in="SourceAlpha" stdDeviation="0"></feGaussianBlur>
	<feOffset dx="0" dy="0" result="oBlur" ></feOffset>
	<feFlood flood-color="rgb(0,0,0)" flood-opacity="1"/>
	<feComposite in2="oBlur" operator="in" />
	<feMerge>
		<feMergeNode></feMergeNode>
		<feMergeNode in="SourceGraphic"></feMergeNode>
	</feMerge>
</filter>
<path style="stroke: none; stroke-width: 1; stroke-dasharray: none; stroke-linecap: butt; stroke-dashoffset: 0; stroke-linejoin: miter; stroke-miterlimit: 4; fill: rgb(38,37,36); fill-rule: nonzero; opacity: 1;filter: url(#SVGID_22475);"  paint-order="stroke"  transform=" translate(-131.86344932835854, 13.720000000000002)" d="M 2.46 -41.41 L 2.46 -41.41 L 6.37 -41.41 Q 6.37 -32.61 16.24 -6.24 L 16.24 -6.24 Q 25.96 -32.61 25.96 -41.41 L 25.96 -41.41 L 29.87 -41.41 Q 29.87 -30.15 18.06 0 L 18.06 0 L 14.43 0 Q 2.46 -30.15 2.46 -41.41 Z M 34.21 -9.2 L 34.21 -9.2 Q 34.21 -4.74 36.73 -2.06 L 36.73 -2.06 Q 39.28 0.62 43.5 0.62 L 43.5 0.62 Q 46.2 0.62 49.1 -0.55 L 49.1 -0.55 Q 49.83 -0.89 49.9 0.03 L 49.9 0.03 L 53.8 0.03 L 53.8 -17.63 Q 53.8 -21.72 52.85 -23.87 L 52.85 -23.87 Q 51.46 -27.04 47.62 -28.12 L 47.62 -28.12 Q 45.83 -28.61 43.99 -28.61 L 43.99 -28.61 Q 40.21 -28.61 36.21 -26.49 L 36.21 -26.49 L 38.05 -23.04 Q 41.19 -24.7 44.05 -24.7 L 44.05 -24.7 Q 45.34 -24.7 46.57 -24.36 L 46.57 -24.36 Q 48.51 -23.81 49.19 -22.46 L 49.19 -22.46 Q 49.86 -21.13 49.9 -17.84 L 49.9 -17.84 Q 47.71 -18.76 44.39 -18.76 L 44.39 -18.76 Q 39.81 -18.76 37.01 -16.12 L 37.01 -16.12 Q 34.21 -13.5 34.21 -9.2 Z M 38.11 -9.2 L 38.11 -9.2 Q 38.11 -11.81 39.81 -13.35 L 39.81 -13.35 Q 41.5 -14.86 44.39 -14.86 L 44.39 -14.86 Q 48.45 -14.86 49.9 -13.17 L 49.9 -13.17 L 49.9 -5.88 Q 47.83 -3.29 43.5 -3.29 L 43.5 -3.29 Q 41.41 -3.29 40.05 -4.34 L 40.05 -4.34 Q 38.11 -5.81 38.11 -9.2 Z M 60.6 -6.89 L 60.6 -6.89 L 60.6 -43.31 L 64.51 -43.31 L 64.51 -6.89 Q 64.51 -4.8 65.4 -3.94 L 65.4 -3.94 Q 66.05 -3.29 67.12 -3.29 L 67.12 -3.29 Q 67.18 -3.29 67.21 -3.29 L 67.21 -3.29 L 67.28 0.62 L 67.18 0.62 Q 64.42 0.62 62.63 -1.14 L 62.63 -1.14 Q 60.6 -3.17 60.6 -6.89 Z M 72.69 -6.89 L 72.69 -6.89 L 72.69 -43.31 L 76.6 -43.31 L 76.6 -6.89 Q 76.6 -4.8 77.49 -3.94 L 77.49 -3.94 Q 78.13 -3.29 79.21 -3.29 L 79.21 -3.29 Q 79.27 -3.29 79.3 -3.29 L 79.3 -3.29 L 79.37 0.62 L 79.27 0.62 Q 76.5 0.62 74.72 -1.14 L 74.72 -1.14 Q 72.69 -3.17 72.69 -6.89 Z M 85.64 -19.44 L 85.64 -19.44 Q 86.87 -23.75 89.73 -26.12 L 89.73 -26.12 Q 92.59 -28.45 96.59 -28.45 L 96.59 -28.45 Q 100.28 -28.45 102.74 -26.24 L 102.74 -26.24 Q 105.21 -23.99 105.85 -20.06 L 105.85 -20.06 Q 106.1 -18.64 106.1 -17.5 L 106.1 -17.5 Q 106.1 -16.83 106 -16.24 L 106 -16.24 L 105.82 -14.83 L 88.96 -11.72 Q 89.15 -10 89.55 -8.31 L 89.55 -8.31 Q 90.13 -5.97 91.85 -4.65 L 91.85 -4.65 Q 93.58 -3.29 95.98 -3.29 L 95.98 -3.29 Q 99.85 -3.29 102.07 -5.88 L 102.07 -5.88 L 105.05 -3.35 Q 101.67 0.62 95.98 0.62 L 95.98 0.62 Q 92.22 0.62 89.42 -1.57 L 89.42 -1.57 Q 86.66 -3.72 85.76 -7.35 L 85.76 -7.35 Q 84.9 -10.83 84.9 -13.97 L 84.9 -13.97 Q 84.9 -16.86 85.64 -19.44 Z M 88.93 -15.69 L 88.93 -15.69 L 102.13 -18.15 Q 102.1 -18.76 101.98 -19.44 L 101.98 -19.44 Q 101.14 -24.55 96.59 -24.55 L 96.59 -24.55 Q 91.15 -24.55 89.39 -18.4 L 89.39 -18.4 Q 89.06 -17.23 88.93 -15.69 Z M 115.39 -27.38 L 111.48 -27.53 Q 111.23 -20.79 111.23 -16.15 L 111.23 -16.15 Q 111.23 -8.71 111.85 -6.61 L 111.85 -6.61 Q 113.94 0.74 121.05 0.74 L 121.05 0.74 Q 124.28 0.74 127.14 -0.49 L 127.14 -0.49 L 127.14 6.92 Q 127.14 9.23 126.74 10.03 L 126.74 10.03 Q 126.25 11.07 124.4 11.84 L 124.4 11.84 Q 123.91 12.06 122.95 12.06 L 122.95 12.06 Q 120.68 12.06 115.85 10.77 L 115.85 10.77 L 114.86 14.55 Q 119.82 15.87 123.17 15.87 L 123.17 15.87 Q 124.92 15.87 125.91 15.47 L 125.91 15.47 Q 129.11 14.12 130.25 11.72 L 130.25 11.72 Q 131.04 10.03 131.04 6.92 L 131.04 6.92 L 131.04 -27.47 L 127.14 -27.47 L 127.14 -4.92 Q 124.58 -3.17 121.05 -3.17 L 121.05 -3.17 Q 118.77 -3.17 117.54 -4.18 L 117.54 -4.18 Q 116.31 -5.23 115.6 -7.69 L 115.6 -7.69 Q 115.11 -9.29 115.11 -15.57 L 115.11 -15.57 Q 115.11 -20.18 115.39 -27.38 L 115.39 -27.38 Z M 137.32 -2.28 L 137.32 -2.28 L 140 -5.14 Q 141.93 -3.32 145.29 -3.29 L 145.29 -3.29 L 145.35 -3.29 Q 147.93 -3.29 149.47 -4.92 L 149.47 -4.92 Q 150.58 -6.12 150.58 -7.72 L 150.58 -7.72 Q 150.58 -7.88 150.58 -8.06 L 150.58 -8.06 Q 150.33 -11.57 145.13 -13.66 L 145.13 -13.66 L 144.92 -13.75 Q 142 -14.92 140.7 -15.97 L 140.7 -15.97 Q 138.49 -17.75 138.24 -20.55 L 138.24 -20.55 Q 138.21 -20.89 138.21 -21.23 L 138.21 -21.23 Q 138.21 -23.32 139.54 -25.13 L 139.54 -25.13 Q 141.07 -27.19 143.56 -27.81 L 143.56 -27.81 Q 144.8 -28.12 145.96 -28.12 L 145.96 -28.12 Q 149.56 -28.12 152.7 -25.35 L 152.7 -25.35 L 150.15 -22.43 Q 148.15 -24.18 145.93 -24.18 L 145.93 -24.18 Q 145.23 -24.18 144.49 -23.99 L 144.49 -23.99 Q 143.47 -23.75 142.8 -22.95 L 142.8 -22.95 Q 142.12 -22.12 142.12 -21.13 L 142.12 -21.13 Q 142.12 -21.01 142.12 -20.89 L 142.12 -20.89 Q 142.24 -19.69 143.26 -18.92 L 143.26 -18.92 Q 144.06 -18.3 146.4 -17.38 L 146.4 -17.38 L 146.61 -17.29 Q 154.09 -14.27 154.49 -8.34 L 154.49 -8.34 Q 154.52 -8.06 154.49 -7.75 L 154.49 -7.75 Q 154.49 -4.58 152.3 -2.25 L 152.3 -2.25 Q 149.59 0.62 145.35 0.62 L 145.35 0.62 L 145.26 0.62 Q 140.37 0.58 137.32 -2.28 Z M 177.86 0 L 173.96 0 Q 173.96 -10.71 180.54 -41.37 L 180.54 -41.37 L 184.2 -41.37 Q 189.37 -30.61 191.28 -24.46 L 191.28 -24.46 Q 193.15 -30.58 198.26 -41.37 L 198.26 -41.37 L 201.95 -41.37 Q 208.69 -10.77 208.69 0 L 208.69 0 L 204.78 0 Q 204.78 -8.74 199.37 -35.04 L 199.37 -35.04 Q 193.25 -20.52 193.25 -14.43 L 193.25 -14.43 L 189.34 -14.43 Q 189.34 -20.52 183.12 -35.04 L 183.12 -35.04 Q 177.86 -8.74 177.86 0 L 177.86 0 Z M 212.87 -41.41 L 212.87 -37.5 L 221.64 -37.5 L 221.64 0 L 225.58 0 L 225.58 -37.5 L 234.34 -37.5 L 234.34 -41.41 L 212.87 -41.41 Z M 251.35 0 L 237.45 0 L 237.45 -41.41 L 247.79 -41.41 Q 252.58 -41.41 255.45 -39.41 L 255.45 -39.41 Q 258.31 -37.44 258.58 -33.9 L 258.58 -33.9 Q 258.61 -33.44 258.68 -32.73 L 258.68 -32.73 Q 258.8 -31.16 258.81 -29.98 Q 258.83 -28.79 258.68 -28.02 L 258.68 -28.02 Q 258.15 -25.44 255.94 -23.75 L 255.94 -23.75 Q 258.77 -21.93 259.75 -20.03 L 259.75 -20.03 Q 261.29 -17.07 261.26 -13.01 L 261.26 -13.01 Q 261.26 -10.43 260.67 -7.41 L 260.67 -7.41 Q 259.2 0 251.35 0 L 251.35 0 Z M 241.36 -18.27 L 241.36 -3.91 L 251.35 -3.91 Q 254.12 -3.91 255.35 -4.98 L 255.35 -4.98 Q 256.37 -5.88 256.83 -8.18 L 256.83 -8.18 Q 257.35 -10.83 257.35 -13.01 L 257.35 -13.01 Q 257.35 -16.12 256.28 -18.21 L 256.28 -18.21 Q 255.41 -19.9 251.66 -21.66 L 251.66 -21.66 Q 247.54 -20.18 241.36 -18.27 L 241.36 -18.27 Z M 241.36 -37.5 L 241.36 -22.36 Q 247.35 -24.27 251.11 -25.59 L 251.11 -25.59 Q 254 -26.64 254.65 -28.15 L 254.65 -28.15 Q 254.92 -28.79 254.92 -30.21 L 254.92 -30.21 Q 254.92 -31.13 254.8 -32.36 L 254.8 -32.36 Q 254.71 -33.19 254.68 -33.59 L 254.68 -33.59 Q 254.4 -37.5 247.79 -37.5 L 247.79 -37.5 L 241.36 -37.5 Z" stroke-linecap="round" />
</g>
<g transform="matrix(1.8291314159828014 0 0 1.8291314159828014 645.2931729901716 559.0025043321272)"  >
<filter id="SVGID_22476" y="-20%" height="140%" x="-20%" width="140%" >
	<feGaussianBlur in="SourceAlpha" stdDeviation="0"></feGaussianBlur>
	<feOffset dx="0" dy="0" result="oBlur" ></feOffset>
	<feFlood flood-color="rgb(0,0,0)" flood-opacity="1"/>
	<feComposite in2="oBlur" operator="in" />
	<feMerge>
		<feMergeNode></feMergeNode>
		<feMergeNode in="SourceGraphic"></feMergeNode>
	</feMerge>
</filter>
<path style="stroke: none; stroke-width: 1; stroke-dasharray: none; stroke-linecap: butt; stroke-dashoffset: 0; stroke-linejoin: miter; stroke-miterlimit: 4; fill: rgb(127,204,42); fill-rule: nonzero; opacity: 1;filter: url(#SVGID_22476);"  paint-order="stroke"  transform=" translate(-105.32000000000001, 12.975)" d="M 2.51 -12.99 L 2.51 -12.99 Q 2.51 -16.84 3.29 -19.43 Q 4.06 -22.03 5.36 -23.6 Q 6.66 -25.17 8.33 -25.83 Q 10 -26.49 11.81 -26.49 L 11.81 -26.49 Q 14.48 -26.49 16.14 -25.43 Q 17.79 -24.36 18.72 -22.43 L 18.72 -22.43 L 16.14 -21.23 Q 15.52 -22.61 14.55 -23.38 Q 13.57 -24.15 11.92 -24.15 L 11.92 -24.15 Q 10.51 -24.15 9.34 -23.55 Q 8.17 -22.94 7.37 -21.6 Q 6.56 -20.27 6.11 -18.14 Q 5.66 -16.01 5.66 -12.99 L 5.66 -12.99 Q 5.66 -9.79 6.07 -7.66 Q 6.49 -5.54 7.28 -4.25 Q 8.07 -2.95 9.15 -2.41 Q 10.23 -1.86 11.58 -1.86 L 11.58 -1.86 Q 14.57 -1.86 16.01 -4.03 L 16.01 -4.03 L 16.01 -11.85 L 11.58 -11.85 L 11.58 -14.29 L 18.76 -14.29 L 18.76 0 L 16.38 0 L 16.21 -1.62 Q 15.24 -0.51 13.92 0 Q 12.6 0.51 11.16 0.51 L 11.16 0.51 Q 9.37 0.51 7.8 -0.18 Q 6.22 -0.86 5.05 -2.43 Q 3.88 -3.99 3.2 -6.58 Q 2.51 -9.18 2.51 -12.99 Z M 24.57 -6.52 L 24.57 -6.52 L 24.57 -20.16 L 27.53 -20.16 L 27.53 -6.29 Q 27.53 -4.24 28.63 -3.05 Q 29.72 -1.86 32.27 -1.86 L 32.27 -1.86 Q 34.82 -1.86 35.95 -3.06 Q 37.07 -4.25 37.07 -6.29 L 37.07 -6.29 L 37.07 -20.16 L 39.92 -20.16 L 39.92 -6.52 Q 39.92 -3.36 37.93 -1.41 Q 35.95 0.54 32.24 0.54 L 32.24 0.54 Q 28.56 0.54 26.57 -1.4 Q 24.57 -3.34 24.57 -6.52 Z M 49.15 0 L 46.2 0 L 46.2 -20.16 L 49.15 -20.16 L 49.15 0 Z M 60.8 0 L 55.62 0 L 55.62 -20.16 L 60.84 -20.16 Q 62.63 -20.16 64.46 -19.73 Q 66.29 -19.3 67.74 -18.17 Q 69.19 -17.03 70.11 -15.06 Q 71.03 -13.1 71.03 -10.07 L 71.03 -10.07 Q 71.03 -7.05 70.02 -5.09 Q 69.01 -3.13 67.5 -2 Q 65.99 -0.86 64.19 -0.43 Q 62.38 0 60.8 0 L 60.8 0 Z M 58.54 -17.96 L 58.54 -2.27 L 60.94 -2.27 Q 62.28 -2.27 63.58 -2.59 Q 64.88 -2.92 65.88 -3.78 Q 66.88 -4.64 67.5 -6.15 Q 68.12 -7.66 68.12 -10.07 L 68.12 -10.07 Q 68.12 -12.48 67.46 -14.02 Q 66.81 -15.56 65.77 -16.44 Q 64.72 -17.31 63.45 -17.64 Q 62.17 -17.96 60.91 -17.96 L 60.91 -17.96 L 58.54 -17.96 Z M 89 0 L 76.78 0 L 76.78 -20.16 L 89 -20.16 L 89 -17.75 L 79.73 -17.75 L 79.73 -11.41 L 87.94 -11.41 L 87.94 -9.07 L 79.73 -9.07 L 79.73 -2.41 L 89 -2.41 L 89 0 Z M 99.56 0 L 94.38 0 L 94.38 -20.16 L 99.6 -20.16 Q 101.39 -20.16 103.22 -19.73 Q 105.05 -19.3 106.5 -18.17 Q 107.95 -17.03 108.87 -15.06 Q 109.79 -13.1 109.79 -10.07 L 109.79 -10.07 Q 109.79 -7.05 108.78 -5.09 Q 107.77 -3.13 106.26 -2 Q 104.75 -0.86 102.95 -0.43 Q 101.14 0 99.56 0 L 99.56 0 Z M 97.29 -17.96 L 97.29 -2.27 L 99.7 -2.27 Q 101.04 -2.27 102.34 -2.59 Q 103.64 -2.92 104.64 -3.78 Q 105.64 -4.64 106.26 -6.15 Q 106.88 -7.66 106.88 -10.07 L 106.88 -10.07 Q 106.88 -12.48 106.22 -14.02 Q 105.57 -15.56 104.53 -16.44 Q 103.48 -17.31 102.21 -17.64 Q 100.93 -17.96 99.67 -17.96 L 99.67 -17.96 L 97.29 -17.96 Z M 129.39 0 L 126.33 0 L 126.33 -25.93 L 131.75 -25.93 Q 135.97 -25.93 138.33 -23.99 Q 140.7 -22.06 140.7 -17.93 L 140.7 -17.93 Q 140.7 -16.45 140.34 -15.32 Q 139.99 -14.19 139.38 -13.32 Q 138.76 -12.46 137.94 -11.85 Q 137.11 -11.23 136.16 -10.83 L 136.16 -10.83 L 142.61 0 L 138.97 0 L 133.17 -10.16 L 129.39 -10.16 L 129.39 0 Z M 129.39 -23.57 L 129.39 -12.5 L 131.82 -12.5 Q 134.63 -12.5 136.1 -13.84 Q 137.57 -15.19 137.57 -17.93 L 137.57 -17.93 Q 137.57 -20.67 136.24 -22.12 Q 134.91 -23.57 131.7 -23.57 L 131.7 -23.57 L 129.39 -23.57 Z M 149.33 0 L 146.37 0 L 146.37 -20.16 L 149.33 -20.16 L 149.33 0 Z M 160.98 0 L 155.79 0 L 155.79 -20.16 L 161.02 -20.16 Q 162.81 -20.16 164.64 -19.73 Q 166.46 -19.3 167.92 -18.17 Q 169.37 -17.03 170.29 -15.06 Q 171.21 -13.1 171.21 -10.07 L 171.21 -10.07 Q 171.21 -7.05 170.2 -5.09 Q 169.19 -3.13 167.68 -2 Q 166.17 -0.86 164.36 -0.43 Q 162.56 0 160.98 0 L 160.98 0 Z M 158.71 -17.96 L 158.71 -2.27 L 161.12 -2.27 Q 162.46 -2.27 163.76 -2.59 Q 165.06 -2.92 166.06 -3.78 Q 167.06 -4.64 167.68 -6.15 Q 168.29 -7.66 168.29 -10.07 L 168.29 -10.07 Q 168.29 -12.48 167.64 -14.02 Q 166.99 -15.56 165.95 -16.44 Q 164.9 -17.31 163.63 -17.64 Q 162.35 -17.96 161.09 -17.96 L 161.09 -17.96 L 158.71 -17.96 Z M 189.18 0 L 176.96 0 L 176.96 -20.16 L 189.18 -20.16 L 189.18 -17.75 L 179.91 -17.75 L 179.91 -11.41 L 188.12 -11.41 L 188.12 -9.07 L 179.91 -9.07 L 179.91 -2.41 L 189.18 -2.41 L 189.18 0 Z M 193.11 -3.74 L 193.11 -3.74 L 195.61 -4.9 Q 195.82 -4.39 196.25 -3.83 Q 196.68 -3.27 197.33 -2.8 Q 197.98 -2.34 198.86 -2.05 Q 199.74 -1.76 200.83 -1.76 L 200.83 -1.76 Q 201.62 -1.76 202.41 -1.94 Q 203.2 -2.13 203.81 -2.52 Q 204.42 -2.92 204.82 -3.55 Q 205.22 -4.18 205.22 -5.08 L 205.22 -5.08 Q 205.22 -5.98 204.95 -6.57 Q 204.68 -7.17 204.03 -7.62 Q 203.38 -8.07 202.3 -8.48 Q 201.22 -8.89 199.6 -9.44 L 199.6 -9.44 Q 197.02 -10.3 195.52 -11.59 Q 194.03 -12.88 194.03 -15.15 L 194.03 -15.15 Q 194.03 -16.15 194.49 -17.11 Q 194.96 -18.07 195.84 -18.81 Q 196.72 -19.55 198 -19.98 Q 199.28 -20.41 200.94 -20.41 L 200.94 -20.41 Q 203.41 -20.41 205.16 -19.36 Q 206.91 -18.32 207.84 -16.59 L 207.84 -16.59 L 205.33 -15.59 Q 204.68 -16.86 203.65 -17.52 Q 202.62 -18.18 201.01 -18.18 L 201.01 -18.18 Q 200.21 -18.18 199.46 -18.02 Q 198.7 -17.86 198.12 -17.52 Q 197.54 -17.17 197.18 -16.66 Q 196.82 -16.14 196.82 -15.36 L 196.82 -15.36 Q 196.82 -14.61 197.09 -14.09 Q 197.37 -13.57 197.95 -13.14 Q 198.53 -12.71 199.46 -12.33 Q 200.39 -11.95 201.76 -11.44 L 201.76 -11.44 Q 203.34 -10.86 204.53 -10.34 Q 205.72 -9.83 206.53 -9.14 Q 207.33 -8.46 207.73 -7.52 Q 208.13 -6.59 208.13 -5.19 L 208.13 -5.19 Q 208.13 -3.92 207.61 -2.87 Q 207.09 -1.83 206.13 -1.07 Q 205.17 -0.32 203.83 0.11 Q 202.48 0.54 200.83 0.54 L 200.83 0.54 Q 199.21 0.54 197.93 0.15 Q 196.65 -0.25 195.7 -0.88 Q 194.75 -1.51 194.1 -2.27 Q 193.45 -3.02 193.11 -3.74 Z" stroke-linecap="round" />
</g>
<g transform="matrix(0.804226974333475 0 0 0.804226974333475 297.10284829617297 504.262347082003)" style="" id="logo-logo"  >
	<g transform="matrix(0.2236 0 0 -0.2236 -8.616499999999958 -12.161000399999969)" id="logo-logo"  >
<path style="stroke: none; stroke-width: 1; stroke-dasharray: none; stroke-linecap: butt; stroke-dashoffset: 0; stroke-linejoin: miter; stroke-miterlimit: 10; fill: rgb(16,15,13); fill-rule: nonzero; opacity: 1;"  paint-order="stroke"  transform=" translate(-1072.7556765347708, -1180.276390968795)" d="m 1104.8 1153.11 c 18.44 20.26 19.04 48.85 1.34 63.87 c -17.7 15 -46.99 10.73 -65.43 -9.53 c -18.44 -20.27 -19.04 -48.87 -1.33 -63.87 c 17.69 -15.01 46.99 -10.74 65.42 9.53" stroke-linecap="round" />
</g>
	<g transform="matrix(0.2236 0 0 -0.2236 98.03070000000004 48.75399960000003)" id="logo-logo"  >
<path style="stroke: none; stroke-width: 1; stroke-dasharray: none; stroke-linecap: butt; stroke-dashoffset: 0; stroke-linejoin: miter; stroke-miterlimit: 10; fill: rgb(16,15,13); fill-rule: nonzero; opacity: 1;"  paint-order="stroke"  transform=" translate(-1549.8901950725146, -907.7453054290609)" d="m 1562.09 931.457 c -10.41 6.055 -24.31 0.348 -31.05 -12.75 c -6.73 -13.098 -3.75 -28.621 6.66 -34.676 c 10.4 -6.051 24.28 -0.343 31.03 12.754 c 6.74 13.102 3.77 28.617 -6.64 34.672" stroke-linecap="round" />
</g>
	<g transform="matrix(0.2236 0 0 -0.2236 -14.156200000000041 -18.85850039999996)" id="logo-logo"  >
<path style="stroke: none; stroke-width: 1; stroke-dasharray: none; stroke-linecap: butt; stroke-dashoffset: 0; stroke-linejoin: miter; stroke-miterlimit: 10; fill: rgb(16,15,13); fill-rule: nonzero; opacity: 1;"  paint-order="stroke"  transform=" translate(-1047.97155502848, -1210.2412323862723)" d="m 1184.8 1112.86 c -45.19 -84.81 -136.54 -120.84 -204.046 -80.48 c -67.508 40.35 -85.598 141.82 -40.418 226.63 c 45.187 84.81 136.544 120.85 204.044 80.49 c 67.51 -40.37 85.6 -141.83 40.42 -226.64 z m -35.61 297.12 c -90.34 56.65 -225.522 7.08 -280.674 -94.39 c -60.094 -110.57 -36.469 -237.05 67.761 -299.37 c 104.243 -62.322 236.723 -22.779 295.923 88.32 c 59.18 111.11 19.98 240.86 -83.01 305.44" stroke-linecap="round" />
</g>
	<g transform="matrix(0.2236 0 0 -0.2236 93.09000000000003 43.90059960000002)" id="logo-logo"  >
<path style="stroke: none; stroke-width: 1; stroke-dasharray: none; stroke-linecap: butt; stroke-dashoffset: 0; stroke-linejoin: miter; stroke-miterlimit: 10; fill: rgb(16,15,13); fill-rule: nonzero; opacity: 1;"  paint-order="stroke"  transform=" translate(-1527.785484833124, -929.4598411461)" d="m 1624.95 851.719 c -37.17 -59.446 -105.33 -81.008 -152.28 -48.156 c -46.96 32.839 -55.15 112.359 -18 171.804 c 37.17 59.443 105.61 76.303 152.56 43.453 c 46.95 -32.851 54.88 -107.664 17.72 -167.101 z m -9.14 224.341 c -65.92 45.12 -161.79 19.1 -215.73 -55.22 c -53.95 -74.313 -33.33 -184.633 39.16 -235.344 c 72.49 -50.742 171.02 -20.137 219.7 57.734 c 48.68 77.875 29.89 182.86 -43.13 232.83" stroke-linecap="round" />
</g>
	<g transform="matrix(0.2236 0 0 -0.2236 42.629900000000035 -43.47820039999998)" id="logo-logo"  >
<path style="stroke: none; stroke-width: 1; stroke-dasharray: none; stroke-linecap: butt; stroke-dashoffset: 0; stroke-linejoin: miter; stroke-miterlimit: 10; fill: rgb(136,207,58); fill-rule: nonzero; opacity: 1;"  paint-order="stroke"  transform=" translate(-1302.0300000000002, -1320.3880000000004)" d="m 1527.44 952.703 l -169.59 141.177 v 0 v 0 v 0 l -6.88 34.1 l -40.19 276.89 l 151.52 -153.54 l 13.75 -34.99 l 51.39 -263.637 z m 23.42 352.227 l 4.01 3.97 l 3.95 3.24 l -52.54 24.75 v 0 l -8.69 -64.15 l -32.51 15.06 l -168.63 184.16 l -6.85 54.71 l 20.52 26.38 c 95.74 34.19 160.86 -2.35 160.86 -2.35 c 19.91 30.97 -11.3 71.17 -11.3 71.17 c -165.66 -96 -249.9 111.16 -249.9 111.16 c -50.38 -6.36 -55.16 -47.55 -55.16 -47.55 c 68.9 -14.75 105.04 -84.51 113.88 -103.94 l -47.29 -79.78 v 0 v 0 v 0 v 0 l -23.93 -67.96 l -96.24 -168.96 l -26.71 -54.44 l -3.81 -6.21 l -4.74 -5.59 l -7.89 -3.6 l -12.65 -0.57 l 55.67 -35.48 l -5.36 12.04 l -0.6 9.01 l 2.55 7 l 3.48 6.41 l 33.77 50.43 l 84.51 174.39 l 40.66 47.38 v 0 v 0 l 52.09 -353.84 v 0 l 14.12 -53.38 v 0 v 0 v 0 v 0 v 0 l 227.43 -150.644 v 0 l -33.54 326.954 v 0 l 9.42 29.23 l 25.77 26.08 l -9.39 9 l 0.38 0.53 l 4.66 5.39" stroke-linecap="round" />
</g>
	<g transform="matrix(0.2236 0 0 -0.2236 95.43830000000004 -48.937800400000015)" id="logo-logo"  >
<path style="stroke: none; stroke-width: 1; stroke-dasharray: none; stroke-linecap: butt; stroke-dashoffset: 0; stroke-linejoin: miter; stroke-miterlimit: 10; fill: rgb(16,15,13); fill-rule: nonzero; opacity: 1;"  paint-order="stroke"  transform=" translate(-1538.2915140573916, -1344.813758259605)" d="m 1482.62 1338.28 c 0 0 -26.15 28.26 -13.31 45.99 c 18.89 26.12 48.12 43.53 66.06 -13.6 c 17.94 -57.13 49.8 -80.06 75.45 -74.59 l -2.52 -10.93 c 0 0 -9.73 -7.8 -47.2 -2.21 c -37.49 5.6 -71.73 46.36 -78.48 55.34" stroke-linecap="round" />
</g>
	<g transform="matrix(0.2236 0 0 -0.2236 0 71.61199959999998)" id="logo-logo"  >
<path style="stroke: none; stroke-width: 1; stroke-dasharray: none; stroke-linecap: butt; stroke-dashoffset: 0; stroke-linejoin: miter; stroke-miterlimit: 10; fill: rgb(46,45,45); fill-rule: evenodd; opacity: 1;"  paint-order="stroke"  transform=" translate(-1111.3055, -805.48)" d="m 452.031 518.66 l 3.129 51.36 l 60.985 29.699 l 68.898 96.441 l -5.578 44.285 l 56.543 24.817 h 65.414 l 40.883 82.324 v 173.774 l 136.406 70.94 l 69.508 -61.96 l 121.291 -25.99 l 157.75 -10.42 l -4.55 -54.879 l 182.74 -59.781 l 42.58 -73.793 l 179.44 -101.188 c 0 0 2.05 -38.109 0 -42.68 c -2.04 -4.578 73.59 -80.789 73.59 -80.789 l 69.52 -62.16 H 452.031" stroke-linecap="round" />
</g>
	<g transform="matrix(0.2236 0 0 -0.2236 -15.891899999999964 71.61199959999999)" id="logo-logo"  >
<path style="stroke: none; stroke-width: 1; stroke-dasharray: none; stroke-linecap: butt; stroke-dashoffset: 0; stroke-linejoin: miter; stroke-miterlimit: 10; fill: rgb(16,15,13); fill-rule: nonzero; opacity: 1;"  paint-order="stroke"  transform=" translate(-1040.2060555555556, -805.48)" d="m 913.707 550.609 l 40.883 82.332 v 173.778 l 136.41 70.929 l 69.5 -61.957 l 121.3 -25.996 l 157.74 -10.41 l -4.55 -54.887 l 192.49 -62.968 c 0.01 0.05 -0.02 0.14 -0.01 0.179 c 2.05 4.571 0 42.68 0 42.68 l -166.93 101.188 l -55.09 73.793 l -182.74 59.781 l 4.55 54.879 l -157.75 10.42 l -121.291 25.99 l -69.508 61.96 l -136.406 -70.94 V 847.586 l -40.883 -82.324 h -65.414 l -56.543 -24.817 l 5.578 -44.285 l -68.898 -96.441 l -60.985 -29.699 l -3.129 -51.36 h 340.543 l 55.719 31.949 h 65.414" stroke-linecap="round" />
</g>
	<g transform="matrix(0.2236 0 0 -0.2236 32.39300000000004 94.85799960000004)" id="logo-logo"  >
<path style="stroke: none; stroke-width: 1; stroke-dasharray: none; stroke-linecap: butt; stroke-dashoffset: 0; stroke-linejoin: miter; stroke-miterlimit: 10; fill: rgb(16,15,13); fill-rule: evenodd; opacity: 1;"  paint-order="stroke"  transform=" translate(-1256.23, -701.4784999999999)" d="m 1157.21 884.297 l -7.83 -111.02 l 7.83 -106.316 l 95.36 -9.383 l 36.63 -59.418 l -8.63 -35.961 l 43.42 -43.539 h 39.09 l -37.24 74.801 v 0 l -45.27 100.078 v 0 l -73 7.941 l -14.41 42.09 v 0 l 26.59 90.688 l -62.54 50.039" stroke-linecap="round" />
</g>
</g>
</svg>